# xmcd
#
# Track frame offsets: 
#        150
#        12563
#        27438
#        40425
#        54100
#        75925
#        88150
#        99925
#        120563
#        133113
#        150313
#        165063
#        174488
#        196550
#
# Disc length: 2815 seconds
#
# Revision: 0
# Processed by: cddbd v1.4PL0 Copyright (c) Steve Scherf et al.
# Submitted via: ExactAudioCopy v0.95a3
#
DISCID=960afd0e
DTITLE=Various Artist - Electric Blues
DYEAR=1900
DGENRE=Blues
TTITLE0=Spoonful
TTITLE1=Baby, Please Don't Go
TTITLE2=The Sky is Crying
TTITLE3=Stormy Monday Blues
TTITLE4=Hoochie Coochie Man
TTITLE5=Don't Turn Me from Your Door
TTITLE6=Bright Light, Big City
TTITLE7=Hummingbird
TTITLE8=Born Under a Bad Sign
TTITLE9=All Your Love
TTITLE10=I Can't Quit You Baby
TTITLE11=HooDoo Man Blues
TTITLE12=Frosty
TTITLE13=Happy New Year
EXTD=
EXTT0=
EXTT1=
EXTT2=
EXTT3=
EXTT4=
EXTT5=
EXTT6=
EXTT7=
EXTT8=
EXTT9=
EXTT10=
EXTT11=
EXTT12=
EXTT13=
PLAYORDER=
